<svg width="" height="50" viewBox="0 0 329 164" fill="none" xmlns="http://www.w3.org/2000/svg">
<g filter="url(#filter0_dd_301_17)">
<rect x="30" y="30" width="269" height="104" rx="20" fill="#fff"/>
<rect x="30" y="30" width="269" height="104" rx="20" fill="url(#paint0_linear_301_17)" fill-opacity="0.4" style="mix-blend-mode:soft-light"/>
<rect x="30.5" y="30.5" width="268" height="103" rx="19.5" stroke="url(#paint1_linear_301_17)" stroke-opacity="0.16" style="mix-blend-mode:hard-light"/>
</g>
<path d="M105.784 95.352C104.056 95.352 102.532 94.968 101.212 94.2C99.892 93.408 98.86 92.316 98.116 90.924C97.372 89.532 97 87.912 97 86.064C97 84.192 97.36 82.548 98.08 81.132C98.824 79.716 99.856 78.612 101.176 77.82C102.52 77.028 104.068 76.632 105.82 76.632C107.548 76.632 109.036 77.028 110.284 77.82C111.532 78.588 112.492 79.62 113.164 80.916C113.86 82.212 114.208 83.64 114.208 85.2C114.208 85.44 114.208 85.704 114.208 85.992C114.208 86.256 114.196 86.556 114.172 86.892H100.744C100.864 88.548 101.404 89.808 102.364 90.672C103.324 91.512 104.452 91.932 105.748 91.932C106.876 91.932 107.764 91.704 108.412 91.248C109.084 90.768 109.576 90.12 109.888 89.304H113.74C113.308 91.008 112.408 92.448 111.04 93.624C109.672 94.776 107.92 95.352 105.784 95.352ZM105.784 79.944C104.608 79.944 103.564 80.304 102.652 81.024C101.74 81.72 101.152 82.704 100.888 83.976H110.392C110.296 82.776 109.828 81.804 108.988 81.06C108.148 80.316 107.08 79.944 105.784 79.944ZM115.274 94.92V77.064H118.442L118.766 79.152H118.946C119.258 78.408 119.738 77.808 120.386 77.352C121.034 76.872 121.802 76.632 122.69 76.632C123.554 76.632 124.31 76.848 124.958 77.28C125.606 77.712 126.086 78.336 126.398 79.152H126.542C126.854 78.432 127.346 77.832 128.018 77.352C128.69 76.872 129.518 76.632 130.502 76.632C131.822 76.632 132.818 77.064 133.49 77.928C134.186 78.792 134.534 80.004 134.534 81.564V94.92H130.862V82.32C130.862 81.6 130.706 81.036 130.394 80.628C130.106 80.196 129.638 79.98 128.99 79.98C128.342 79.98 127.802 80.232 127.37 80.736C126.962 81.24 126.758 81.948 126.758 82.86V94.92H123.05V82.32C123.05 81.6 122.906 81.036 122.618 80.628C122.33 80.196 121.862 79.98 121.214 79.98C120.566 79.98 120.026 80.232 119.594 80.736C119.162 81.24 118.946 81.948 118.946 82.86V94.92H115.274ZM143.808 95.352C142.32 95.352 140.988 95.004 139.812 94.308C138.636 93.588 137.7 92.532 137.004 91.14C136.332 89.748 135.996 88.032 135.996 85.992C135.996 83.952 136.344 82.236 137.04 80.844C137.736 79.452 138.672 78.408 139.848 77.712C141.048 76.992 142.38 76.632 143.844 76.632C145.212 76.632 146.34 76.896 147.228 77.424C148.116 77.928 148.776 78.576 149.208 79.368V69H153.024V94.92H149.748L149.424 92.292H149.208C148.728 93.228 148.044 93.972 147.156 94.524C146.292 95.076 145.176 95.352 143.808 95.352ZM144.6 91.716C145.968 91.716 147.096 91.236 147.984 90.276C148.896 89.316 149.352 87.888 149.352 85.992C149.352 84.072 148.896 82.644 147.984 81.708C147.096 80.748 145.968 80.268 144.6 80.268C143.232 80.268 142.092 80.748 141.18 81.708C140.292 82.668 139.848 84.108 139.848 86.028C139.848 87.924 140.292 89.352 141.18 90.312C142.092 91.248 143.232 91.716 144.6 91.716ZM158.194 83.94V80.7H177.8L170.578 83.94H158.194ZM170.578 83.94L177.8 80.7H190.184V83.94H170.578ZM203.742 95.352C201.39 95.352 199.518 94.8 198.126 93.696C196.734 92.592 195.942 91.128 195.75 89.304H199.674C199.818 90.144 200.238 90.828 200.934 91.356C201.654 91.884 202.602 92.148 203.778 92.148C204.906 92.148 205.77 91.92 206.37 91.464C206.994 90.984 207.306 90.432 207.306 89.808C207.306 88.896 206.934 88.272 206.19 87.936C205.47 87.6 204.402 87.348 202.986 87.18C201.762 87.036 200.646 86.76 199.638 86.352C198.654 85.92 197.874 85.344 197.298 84.624C196.722 83.88 196.434 82.956 196.434 81.852C196.434 80.292 197.046 79.032 198.27 78.072C199.494 77.112 201.198 76.632 203.382 76.632C205.566 76.632 207.258 77.124 208.458 78.108C209.658 79.092 210.354 80.436 210.546 82.14H206.874C206.778 81.42 206.406 80.856 205.758 80.448C205.11 80.016 204.306 79.8 203.346 79.8C202.362 79.8 201.582 79.992 201.006 80.376C200.43 80.736 200.142 81.216 200.142 81.816C200.142 83.112 201.534 83.904 204.318 84.192C205.638 84.336 206.814 84.588 207.846 84.948C208.878 85.284 209.694 85.824 210.294 86.568C210.894 87.288 211.194 88.308 211.194 89.628C211.218 90.708 210.906 91.68 210.258 92.544C209.634 93.408 208.758 94.092 207.63 94.596C206.526 95.1 205.23 95.352 203.742 95.352ZM215.032 94.92V69H218.848V79.728C219.328 78.84 220.096 78.108 221.152 77.532C222.208 76.932 223.396 76.632 224.716 76.632C226.924 76.632 228.604 77.304 229.756 78.648C230.908 79.968 231.484 81.876 231.484 84.372V94.92H227.668V84.912C227.668 83.424 227.308 82.272 226.588 81.456C225.868 80.64 224.872 80.232 223.6 80.232C222.28 80.232 221.152 80.676 220.216 81.564C219.304 82.452 218.848 83.736 218.848 85.416V94.92H215.032Z" fill="#39291A"/>
<defs>
<filter id="filter0_dd_301_17" x="0" y="0" width="329" height="164" filterUnits="userSpaceOnUse" color-interpolation-filters="sRGB">
<feFlood flood-opacity="0" result="BackgroundImageFix"/>
<feColorMatrix in="SourceAlpha" type="matrix" values="0 0 0 0 0 0 0 0 0 0 0 0 0 0 0 0 0 0 127 0" result="hardAlpha"/>
<feOffset dx="10" dy="10"/>
<feGaussianBlur stdDeviation="10"/>
<feColorMatrix type="matrix" values="0 0 0 0 0.792157 0 0 0 0 0.576471 0 0 0 0 0.372549 0 0 0 0.8 0"/>
<feBlend mode="normal" in2="BackgroundImageFix" result="effect1_dropShadow_301_17"/>
<feColorMatrix in="SourceAlpha" type="matrix" values="0 0 0 0 0 0 0 0 0 0 0 0 0 0 0 0 0 0 127 0" result="hardAlpha"/>
<feOffset dx="-10" dy="-10"/>
<feGaussianBlur stdDeviation="10"/>
<feColorMatrix type="matrix" values="0 0 0 0 0.979167 0 0 0 0 0.983333 0 0 0 0 1 0 0 0 1 0"/>
<feBlend mode="normal" in2="effect1_dropShadow_301_17" result="effect2_dropShadow_301_17"/>
<feBlend mode="normal" in="SourceGraphic" in2="effect2_dropShadow_301_17" result="shape"/>
</filter>
<linearGradient id="paint0_linear_301_17" x1="446.817" y1="82" x2="381.413" y2="-103.919" gradientUnits="userSpaceOnUse">
<stop/>
<stop offset="1" stop-color="white"/>
</linearGradient>
<linearGradient id="paint1_linear_301_17" x1="20.6885" y1="26.8" x2="97.3162" y2="221.474" gradientUnits="userSpaceOnUse">
<stop stop-color="white"/>
<stop offset="1" stop-color="white" stop-opacity="0"/>
</linearGradient>
</defs>
</svg>
