<svg width="10000" height="10000" viewBox="0 0 10000 10000" fill="none" xmlns="http://www.w3.org/2000/svg">
<g clip-path="url(#clip0_2306_208)">
<path d="M4050.76 14425.5C4881.06 13584.3 5363.61 14060.5 6193.91 13219.2C7024.2 12378 6541.65 11901.7 7371.7 11060.7C8201.76 10219.6 8684.56 10695.6 9514.85 9854.36C10345.1 9013.08 9862.59 8536.83 10692.9 7695.55C11523.2 6854.27 12005.7 7330.52 12836.3 6489C13666.8 5647.48 13184 5171.47 14014.3 4330.19" stroke="#8000ff" stroke-width="15" stroke-miterlimit="10"/>
<path d="M-5388.09 4954.61C-4557.8 4113.33 -4075.24 4589.59 -3244.95 3748.31C-2414.65 2907.03 -2897.21 2430.77 -2067.15 1589.73C-1237.1 748.696 -754.3 1224.71 75.9954 383.431C906.29 -457.848 423.732 -934.105 1254.03 -1775.38C2084.32 -2616.66 2566.88 -2140.41 3397.41 -2981.93C4227.95 -3823.45 3745.15 -4299.47 4575.45 -5140.75" stroke="#8000ff" stroke-width="15" stroke-miterlimit="10"/>
<path d="M642.977 10888.1C1473.27 10046.8 1955.83 10523.1 2786.12 9681.8C3616.42 8840.52 3133.86 8364.26 3963.92 7523.23C4793.97 6682.19 5276.77 7158.2 6107.07 6316.92C6937.36 5475.64 6454.8 4999.39 7285.1 4158.11C8115.39 3316.83 8597.95 3793.08 9428.48 2951.56C10259 2110.04 9776.22 1634.03 10606.5 792.747" stroke="#8000ff" stroke-width="15" stroke-miterlimit="10"/>
<path d="M-2417.95 7871.14C-1587.65 7029.86 -1105.09 7506.12 -274.797 6664.84C555.498 5823.56 72.9398 5347.31 902.996 4506.27C1733.05 3665.23 2215.85 4141.25 3046.14 3299.97C3876.44 2458.69 3393.88 1982.43 4224.18 1141.15C5054.47 299.871 5537.03 776.128 6367.56 -65.3938C7198.1 -906.915 6715.3 -1382.93 7545.59 -2224.21" stroke="#8000ff" stroke-width="15" stroke-miterlimit="10"/>
<path d="M3601.12 13893.6C4431.42 13052.4 4913.98 13528.6 5744.27 12687.3C6574.57 11846.1 6092.01 11369.8 6922.07 10528.8C7752.12 9687.72 8234.92 10163.7 9065.21 9322.46C9895.51 8481.18 9412.95 8004.92 10243.2 7163.64C11073.5 6322.36 11556.1 6798.62 12386.6 5957.1C13217.2 5115.58 12734.4 4639.56 13564.7 3798.28" stroke="#8000ff" stroke-width="15" stroke-miterlimit="10"/>
<path d="M-3928.55 6507.77C-3098.25 5666.49 -2615.69 6142.74 -1785.4 5301.46C-955.104 4460.18 -1437.66 3983.93 -607.606 3142.89C222.45 2301.85 705.247 2777.87 1535.54 1936.59C2365.84 1095.31 1883.28 619.051 2713.57 -222.228C3543.87 -1063.51 4026.43 -587.251 4856.96 -1428.77C5687.49 -2270.29 5204.7 -2746.31 6034.99 -3587.59" stroke="#8000ff" stroke-width="15" stroke-miterlimit="10"/>
<path d="M2090.52 12431.3C2920.82 11590 3403.38 12066.2 4233.67 11225C5063.97 10383.7 4581.41 9907.42 5411.46 9066.38C6241.52 8225.34 6724.32 8701.36 7554.61 7860.08C8384.91 7018.8 7902.35 6542.54 8732.64 5701.26C9562.94 4859.98 10045.5 5336.24 10876 4494.72C11706.6 3653.2 11223.8 3177.18 12054.1 2335.9" stroke="#8000ff" stroke-width="15" stroke-miterlimit="10"/>
<path d="M-958.402 9424.3C-128.107 8583.02 354.451 9059.28 1184.75 8218C2015.04 7376.72 1532.48 6900.46 2362.54 6059.42C3192.59 5218.39 3675.39 5694.4 4505.69 4853.12C5335.98 4011.84 4853.42 3535.59 5683.72 2694.31C6514.01 1853.03 6996.57 2329.28 7827.11 1487.76C8657.64 646.241 8174.84 170.226 9005.14 -671.054" stroke="#8000ff" stroke-width="15" stroke-miterlimit="10"/>
<path d="M5060.67 15446.8C5890.97 14605.5 6373.52 15081.8 7203.82 14240.5C8034.11 13399.2 7551.56 12923 8381.61 12081.9C9211.67 11240.9 9694.47 11716.9 10524.8 10875.6C11355.1 10034.3 10872.5 9558.08 11702.8 8716.8C12533.1 7875.52 13015.6 8351.78 13846.2 7510.26C14676.7 6668.74 14193.9 6192.72 15024.2 5351.44" stroke="#8000ff" stroke-width="15" stroke-miterlimit="10"/>
<path d="M-5589.84 4679.58C-4759.55 3838.3 -4276.99 4314.56 -3446.7 3473.28C-2616.4 2632 -3098.96 2155.74 -2268.9 1314.71C-1438.85 473.668 -956.05 949.683 -125.755 108.404C704.54 -732.876 221.982 -1209.13 1052.28 -2050.41C1882.57 -2891.69 2365.13 -2415.43 3195.66 -3256.96C4026.2 -4098.48 3543.4 -4574.49 4373.7 -5415.77" stroke="#8000ff" stroke-width="15" stroke-miterlimit="10"/>
<path d="M441.234 10613.1C1271.53 9771.79 1754.09 10248.1 2584.38 9406.77C3414.68 8565.49 2932.12 8089.24 3762.18 7248.2C4592.23 6407.16 5075.03 6883.18 5905.32 6041.9C6735.62 5200.62 6253.06 4724.36 7083.36 3883.08C7913.65 3041.8 8396.21 3518.06 9226.74 2676.54C10057.3 1835.01 9574.48 1359 10404.8 517.72" stroke="#8000ff" stroke-width="15" stroke-miterlimit="10"/>
<path d="M-2619.7 7596.12C-1789.4 6754.84 -1306.84 7231.09 -476.547 6389.82C353.748 5548.54 -128.81 5072.28 701.246 4231.24C1531.3 3390.2 2014.1 3866.22 2844.39 3024.94C3674.69 2183.66 3192.13 1707.4 4022.43 866.123C4852.72 24.8435 5335.28 501.1 6165.81 -340.421C6996.35 -1181.94 6513.55 -1657.96 7343.84 -2499.24" stroke="#8000ff" stroke-width="15" stroke-miterlimit="10"/>
<path d="M3399.38 13618.6C4229.68 12777.3 4712.24 13253.6 5542.53 12412.3C6372.83 11571 5890.27 11094.8 6720.32 10253.7C7550.38 9412.7 8033.18 9888.71 8863.47 9047.43C9693.77 8206.15 9211.21 7729.9 10041.5 6888.62C10871.8 6047.34 11354.4 6523.59 12184.9 5682.07C13015.4 4840.55 12532.6 4364.54 13362.9 3523.26" stroke="#8000ff" stroke-width="15" stroke-miterlimit="10"/>
<path d="M-4130.3 6232.74C-3300 5391.46 -2817.44 5867.72 -1987.15 5026.44C-1156.85 4185.16 -1639.41 3708.9 -809.356 2867.86C20.7004 2026.82 503.497 2502.84 1333.79 1661.56C2164.09 820.281 1681.53 344.024 2511.82 -497.256C3342.12 -1338.54 3824.68 -862.278 4655.21 -1703.8C5485.74 -2545.32 5002.95 -3021.34 5833.24 -3862.62" stroke="#8000ff" stroke-width="15" stroke-miterlimit="10"/>
<path d="M1888.78 12156.2C2719.07 11315 3201.63 11791.2 4031.93 10949.9C4862.22 10108.6 4379.66 9632.39 5209.72 8791.35C6039.77 7950.32 6522.57 8426.33 7352.87 7585.05C8183.16 6743.77 7700.6 6267.52 8530.9 5426.24C9361.19 4584.96 9843.75 5061.21 10674.3 4219.69C11504.8 3378.17 11022 2902.16 11852.3 2060.88" stroke="#8000ff" stroke-width="15" stroke-miterlimit="10"/>
<path d="M-1160.15 9149.27C-329.853 8307.99 152.705 8784.25 983 7942.97C1813.29 7101.69 1330.74 6625.43 2160.79 5784.4C2990.85 4943.36 3473.65 5419.37 4303.94 4578.1C5134.24 3736.82 4651.68 3260.56 5481.97 2419.28C6312.27 1578 6794.83 2054.26 7625.36 1212.74C8455.89 371.214 7973.1 -104.802 8803.39 -946.081" stroke="#8000ff" stroke-width="15" stroke-miterlimit="10"/>
<path d="M4858.93 15171.8C5689.22 14330.5 6171.78 14806.7 7002.07 13965.5C7832.37 13124.2 7349.81 12647.9 8179.87 11806.9C9009.92 10965.9 9492.72 11441.9 10323 10600.6C11153.3 9759.31 10670.8 9283.05 11501 8441.78C12331.3 7600.5 12813.9 8076.75 13644.4 7235.23C14475 6393.71 13992.2 5917.69 14822.5 5076.41" stroke="#8000ff" stroke-width="15" stroke-miterlimit="10"/>
<path d="M-6156.72 4171.48C-5326.43 3330.2 -4843.87 3806.46 -4013.57 2965.18C-3183.28 2123.9 -3665.84 1647.65 -2835.78 806.608C-2005.73 -34.4294 -1522.93 441.586 -692.634 -399.694C137.661 -1240.97 -344.897 -1717.23 485.398 -2558.51C1315.69 -3399.79 1798.25 -2923.53 2628.79 -3765.05C3459.32 -4606.58 2976.52 -5082.59 3806.82 -5923.87" stroke="#8000ff" stroke-width="15" stroke-miterlimit="10"/>
<path d="M-125.648 10105C704.647 9263.7 1187.2 9739.95 2017.5 8898.67C2847.79 8057.4 2365.24 7581.14 3195.29 6740.1C4025.35 5899.06 4508.15 6375.08 5338.44 5533.8C6168.74 4692.52 5686.18 4216.26 6516.47 3374.98C7346.77 2533.7 7829.33 3009.96 8659.86 2168.44C9490.39 1326.92 9007.6 850.901 9837.89 9.62192" stroke="#8000ff" stroke-width="15" stroke-miterlimit="10"/>
<path d="M-3186.57 7187.02C-2356.28 6345.74 -1873.72 6822 -1043.43 5980.72C-213.131 5139.44 -695.689 4663.18 134.367 3822.15C964.423 2981.11 1447.22 3457.12 2277.51 2615.84C3107.81 1774.56 2625.25 1298.31 3455.55 457.027C4285.84 -384.252 4768.4 92.0048 5598.93 -749.517C6429.47 -1591.04 5946.67 -2067.05 6776.97 -2908.33" stroke="#8000ff" stroke-width="15" stroke-miterlimit="10"/>
<path d="M2832.5 13110.5C3662.79 12269.2 4145.35 12745.5 4975.65 11904.2C5805.94 11062.9 5323.39 10586.7 6153.44 9745.64C6983.5 8904.6 7466.29 9380.62 8296.59 8539.34C9126.88 7698.06 8644.33 7221.8 9474.62 6380.52C10304.9 5539.24 10787.5 6015.5 11618 5173.98C12448.5 4332.45 11965.7 3856.44 12796 3015.16" stroke="#8000ff" stroke-width="15" stroke-miterlimit="10"/>
<path d="M-4697.18 5724.64C-3866.88 4883.36 -3384.33 5359.62 -2554.03 4518.34C-1723.74 3677.06 -2206.29 3200.8 -1376.24 2359.76C-546.182 1518.73 -63.3855 1994.74 766.909 1153.46C1597.2 312.183 1114.65 -164.074 1944.94 -1005.35C2775.24 -1846.63 3257.79 -1370.38 4088.33 -2211.9C4918.86 -3053.42 4436.07 -3529.43 5266.36 -4370.71" stroke="#8000ff" stroke-width="15" stroke-miterlimit="10"/>
<path d="M1333.9 11658.1C2164.19 10816.9 2646.75 11293.1 3477.05 10451.8C4307.34 9610.55 3824.78 9134.3 4654.84 8293.26C5484.9 7452.22 5967.69 7928.24 6797.99 7086.96C7628.28 6245.68 7145.72 5769.42 7976.02 4928.14C8806.31 4086.86 9288.87 4563.12 10119.4 3721.6C10949.9 2880.07 10467.1 2404.06 11297.4 1562.78" stroke="#8000ff" stroke-width="15" stroke-miterlimit="10"/>
<path d="M-1727.03 8641.18C-896.736 7799.9 -414.178 8276.16 416.117 7434.88C1246.41 6593.6 763.854 6117.34 1593.91 5276.3C2423.97 4435.27 2906.76 4911.28 3737.06 4070C4567.35 3228.72 4084.79 2752.47 4915.09 1911.19C5745.38 1069.91 6227.94 1546.16 7058.48 704.641C7889.01 -136.88 7406.21 -612.895 8236.51 -1454.17" stroke="#8000ff" stroke-width="15" stroke-miterlimit="10"/>
<path d="M4292.04 14663.7C5122.33 13822.4 5604.89 14298.6 6435.19 13457.4C7265.48 12616.1 6782.92 12139.8 7612.98 11298.8C8443.04 10457.8 8925.83 10933.8 9756.13 10092.5C10586.4 9251.21 10103.9 8774.96 10934.2 7933.68C11764.5 7092.4 12247 7568.66 13077.5 6727.13C13908.1 5885.61 13425.3 5409.6 14255.6 4568.32" stroke="#8000ff" stroke-width="15" stroke-miterlimit="10"/>
<path d="M-5146.81 5192.74C-4316.52 4351.46 -3833.96 4827.72 -3003.66 3986.44C-2173.37 3145.16 -2655.93 2668.9 -1825.87 1827.86C-995.815 986.825 -513.018 1462.84 317.277 621.56C1147.57 -219.719 665.013 -695.976 1495.31 -1537.26C2325.6 -2378.54 2808.16 -1902.28 3638.7 -2743.8C4469.23 -3585.32 3986.43 -4061.34 4816.73 -4902.62" stroke="#8000ff" stroke-width="15" stroke-miterlimit="10"/>
<path d="M884.262 11126.2C1714.56 10285 2197.11 10761.2 3027.41 9919.93C3857.7 9078.65 3375.15 8602.39 4205.2 7761.36C5035.26 6920.32 5518.06 7396.33 6348.35 6555.05C7178.65 5713.77 6696.09 5237.52 7526.38 4396.24C8356.68 3554.96 8839.24 4031.22 9669.77 3189.69C10500.3 2348.17 10017.5 1872.16 10847.8 1030.88" stroke="#8000ff" stroke-width="15" stroke-miterlimit="10"/>
<path d="M-2176.67 8109.28C-1346.37 7268 -863.815 7744.25 -33.52 6902.97C796.775 6061.69 314.217 5585.44 1144.27 4744.4C1974.33 3903.36 2457.13 4379.38 3287.42 3538.1C4117.72 2696.82 3635.16 2220.56 4465.45 1379.28C5295.75 538.002 5778.31 1014.26 6608.84 172.737C7439.37 -668.785 6956.58 -1144.8 7786.87 -1986.08" stroke="#8000ff" stroke-width="15" stroke-miterlimit="10"/>
<path d="M3842.41 14131.8C4672.71 13290.5 5155.26 13766.7 5985.56 12925.5C6815.85 12084.2 6333.3 11607.9 7163.35 10766.9C7993.41 9925.85 8476.2 10401.9 9306.5 9560.59C10136.8 8719.31 9654.24 8243.05 10484.5 7401.77C11314.8 6560.49 11797.4 7036.75 12627.9 6195.23C13458.5 5353.71 12975.7 4877.69 13806 4036.41" stroke="#8000ff" stroke-width="15" stroke-miterlimit="10"/>
<path d="M-3687.27 6745.9C-2856.97 5904.62 -2374.42 6380.87 -1544.12 5539.59C-713.827 4698.32 -1196.38 4222.06 -366.328 3381.02C463.728 2539.98 946.525 3016 1776.82 2174.72C2607.11 1333.44 2124.56 857.182 2954.85 15.9024C3785.15 -825.377 4267.7 -349.12 5098.24 -1190.64C5928.77 -2032.16 5445.98 -2508.18 6276.27 -3349.46" stroke="#8000ff" stroke-width="15" stroke-miterlimit="10"/>
<path d="M2331.8 12669.4C3162.1 11828.1 3644.65 12304.4 4474.95 11463.1C5305.24 10621.8 4822.69 10145.5 5652.74 9304.51C6482.8 8463.47 6965.59 8939.49 7795.89 8098.21C8626.18 7256.93 8143.63 6780.67 8973.92 5939.39C9804.22 5098.12 10286.8 5574.37 11117.3 4732.85C11947.8 3891.33 11465 3415.31 12295.3 2574.03" stroke="#8000ff" stroke-width="15" stroke-miterlimit="10"/>
<path d="M-717.121 9662.43C113.174 8821.15 595.732 9297.41 1426.03 8456.13C2256.32 7614.85 1773.76 7138.59 2603.82 6297.56C3433.88 5456.52 3916.67 5932.54 4746.97 5091.26C5577.26 4249.98 5094.7 3773.72 5925 2932.44C6755.29 2091.16 7237.85 2567.42 8068.39 1725.9C8898.92 884.374 8416.12 408.359 9246.42 -432.921" stroke="#8000ff" stroke-width="15" stroke-miterlimit="10"/>
<path d="M5301.95 15684.9C6132.24 14843.6 6614.8 15319.9 7445.1 14478.6C8275.39 13637.3 7792.83 13161.1 8622.89 12320C9452.95 11479 9935.74 11955 10766 11113.7C11596.3 10272.5 11113.8 9796.21 11944.1 8954.93C12774.4 8113.65 13256.9 8589.91 14087.5 7748.39C14918 6906.87 14435.2 6430.85 15265.5 5589.57" stroke="#8000ff" stroke-width="15" stroke-miterlimit="10"/>
<path d="M-1968.31 8403.05C-1138.01 7561.77 -655.456 8038.02 174.839 7196.74C1005.13 6355.47 522.576 5879.21 1352.63 5038.17C2182.69 4197.13 2665.49 4673.15 3495.78 3831.87C4326.08 2990.59 3843.52 2514.33 4673.81 1673.05C5504.11 831.773 5986.67 1308.03 6817.2 466.509C7647.73 -375.013 7164.94 -851.028 7995.23 -1692.31" stroke="#8000ff" stroke-width="15" stroke-miterlimit="10"/>
<path d="M-6398 3933.36C-5567.71 3092.08 -5085.15 3568.33 -4254.85 2727.05C-3424.56 1885.77 -3907.11 1409.52 -3077.06 568.479C-2247 -272.558 -1764.21 203.457 -933.911 -637.823C-103.616 -1479.1 -586.174 -1955.36 244.121 -2796.64C1074.42 -3637.92 1556.97 -3161.66 2387.51 -4003.18C3218.04 -4844.7 2735.24 -5320.72 3565.54 -6162" stroke="#8000ff" stroke-width="15" stroke-miterlimit="10"/>
<path d="M-366.926 9866.85C463.369 9025.57 945.927 9501.82 1776.22 8660.54C2606.52 7819.26 2123.96 7343.01 2954.02 6501.97C3784.07 5660.93 4266.87 6136.95 5097.16 5295.67C5927.46 4454.39 5444.9 3978.13 6275.2 3136.85C7105.49 2295.57 7588.05 2771.83 8418.58 1930.31C9249.12 1088.79 8766.32 612.771 9596.61 -228.509" stroke="#8000ff" stroke-width="15" stroke-miterlimit="10"/>
<path d="M-3427.85 6948.89C-2597.56 6107.61 -2115 6583.87 -1284.7 5742.59C-454.409 4901.31 -936.966 4425.05 -106.91 3584.01C723.146 2742.98 1205.94 3218.99 2036.24 2377.71C2866.53 1536.43 2383.97 1060.18 3214.27 218.897C4044.56 -622.383 4527.12 -146.126 5357.66 -987.648C6188.19 -1829.17 5705.39 -2305.18 6535.69 -3146.46" stroke="#8000ff" stroke-width="15" stroke-miterlimit="10"/>
<path d="M2591.22 12872.4C3421.52 12031.1 3904.08 12507.4 4734.37 11666.1C5564.67 10824.8 5082.11 10348.5 5912.16 9507.51C6742.22 8666.47 7225.02 9142.49 8055.31 8301.21C8885.61 7459.93 8403.05 6983.67 9233.34 6142.39C10063.6 5301.11 10546.2 5777.37 11376.7 4935.85C12207.3 4094.32 11724.5 3618.31 12554.8 2777.03" stroke="#8000ff" stroke-width="15" stroke-miterlimit="10"/>
<path d="M-4938.46 5486.51C-4108.16 4645.23 -3625.6 5121.49 -2795.31 4280.21C-1965.01 3438.93 -2447.57 2962.67 -1617.52 2121.64C-787.46 1280.6 -304.663 1756.61 525.632 915.334C1355.93 74.054 873.369 -402.203 1703.66 -1243.48C2533.96 -2084.76 3016.52 -1608.5 3847.05 -2450.03C4677.58 -3291.55 4194.79 -3767.56 5025.08 -4608.84" stroke="#8000ff" stroke-width="15" stroke-miterlimit="10"/>
<path d="M1092.61 11420C1922.91 10578.7 2405.47 11055 3235.76 10213.7C4066.06 9372.42 3583.5 8896.17 4413.55 8055.13C5243.61 7214.09 5726.41 7690.11 6556.7 6848.83C7387 6007.55 6904.44 5531.29 7734.73 4690.01C8565.03 3848.73 9047.59 4324.99 9878.12 3483.47C10708.7 2641.94 10225.9 2165.93 11056.2 1324.65" stroke="#8000ff" stroke-width="15" stroke-miterlimit="10"/>
<path d="M-5831.12 4441.45C-5000.83 3600.17 -4518.27 4076.43 -3687.97 3235.15C-2857.68 2393.87 -3340.24 1917.61 -2510.18 1076.57C-1680.12 235.535 -1197.33 711.551 -367.032 -129.729C463.263 -971.008 -19.2953 -1447.27 811 -2288.54C1641.29 -3129.82 2123.85 -2653.57 2954.39 -3495.09C3784.92 -4336.61 3302.12 -4812.63 4132.42 -5653.91" stroke="#8000ff" stroke-width="15" stroke-miterlimit="10"/>
<path d="M199.957 10374.9C1030.25 9533.66 1512.81 10009.9 2343.1 9168.64C3173.4 8327.36 2690.84 7851.1 3520.9 7010.07C4350.95 6169.03 4833.75 6645.04 5664.05 5803.76C6494.34 4962.48 6011.78 4486.23 6842.08 3644.95C7672.37 2803.67 8154.93 3279.92 8985.46 2438.4C9816 1596.88 9333.2 1120.87 10163.5 279.587" stroke="#8000ff" stroke-width="15" stroke-miterlimit="10"/>
<path d="M-2860.97 7357.99C-2030.68 6516.71 -1548.12 6992.96 -717.825 6151.68C112.47 5310.4 -370.088 4834.15 459.969 3993.11C1290.02 3152.07 1772.82 3628.09 2603.12 2786.81C3433.41 1945.53 2950.85 1469.27 3781.15 627.992C4611.44 -213.287 5094 262.97 5924.54 -578.552C6755.07 -1420.07 6272.27 -1896.09 7102.57 -2737.37" stroke="#8000ff" stroke-width="15" stroke-miterlimit="10"/>
<path d="M3158.1 13380.5C3988.4 12539.2 4470.95 13015.5 5301.25 12174.2C6131.54 11332.9 5648.99 10856.6 6479.04 10015.6C7309.1 9174.57 7791.9 9650.58 8622.19 8809.3C9452.49 7968.02 8969.93 7491.77 9800.22 6650.49C10630.5 5809.21 11113.1 6285.46 11943.6 5443.94C12774.1 4602.42 12291.3 4126.41 13121.6 3285.13" stroke="#8000ff" stroke-width="15" stroke-miterlimit="10"/>
<path d="M-4371.58 5994.61C-3541.28 5153.33 -3058.73 5629.59 -2228.43 4788.31C-1398.14 3947.03 -1880.69 3470.77 -1050.64 2629.73C-220.581 1788.69 262.216 2264.71 1092.51 1423.43C1922.81 582.15 1440.25 105.893 2270.54 -735.387C3100.84 -1576.67 3583.4 -1100.41 4413.93 -1941.93C5244.46 -2783.45 4761.67 -3259.47 5591.96 -4100.75" stroke="#8000ff" stroke-width="15" stroke-miterlimit="10"/>
<path d="M1647.5 11918.1C2477.79 11076.8 2960.35 11553.1 3790.65 10711.8C4620.94 9870.52 4138.39 9394.26 4968.44 8553.22C5798.5 7712.18 6281.29 8188.2 7111.59 7346.92C7941.88 6505.64 7459.33 6029.38 8289.62 5188.1C9119.92 4346.82 9602.47 4823.08 10433 3981.56C11263.5 3140.04 10780.7 2664.02 11611 1822.74" stroke="#8000ff" stroke-width="15" stroke-miterlimit="10"/>
<path d="M-1401.43 8911.14C-571.135 8069.86 -88.5767 8546.12 741.718 7704.84C1572.01 6863.56 1089.46 6387.31 1919.51 5546.27C2749.57 4705.23 3232.36 5181.25 4062.66 4339.97C4892.95 3498.69 4410.4 3022.43 5240.69 2181.15C6070.99 1339.87 6553.54 1816.13 7384.08 974.606C8214.61 133.085 7731.82 -342.931 8562.11 -1184.21" stroke="#8000ff" stroke-width="15" stroke-miterlimit="10"/>
<path d="M4617.65 14933.6C5447.94 14092.4 5930.5 14568.6 6760.8 13727.3C7591.09 12886.1 7108.53 12409.8 7938.59 11568.8C8768.65 10727.7 9251.44 11203.7 10081.7 10362.5C10912 9521.18 10429.5 9044.92 11259.8 8203.64C12090.1 7362.36 12572.6 7838.62 13403.2 6997.1C14233.7 6155.58 13750.9 5679.56 14581.2 4838.28" stroke="#8000ff" stroke-width="15" stroke-miterlimit="10"/>
</g>
<defs>
<clipPath id="clip0_2306_208">
<rect width="10000" height="10000" fill="white"/>
</clipPath>
</defs>
</svg>
